Coordinates
version=1
nRows=34
nColumns=38
inDegrees=no

Units are S.I. units (second, meters, Newtons, ...)
If the header above contains a line with 'inDegrees', this indicates whether rotational values are in degrees (yes) or radians (no).

endheader
time	pelvis_tilt	pelvis_list	pelvis_rotation	pelvis_tx	pelvis_ty	pelvis_tz	hip_flexion_r	hip_adduction_r	hip_rotation_r	knee_angle_r	ankle_angle_r	subtalar_angle_r	mtp_angle_r	hip_flexion_l	hip_adduction_l	hip_rotation_l	knee_angle_l	ankle_angle_l	subtalar_angle_l	mtp_angle_l	lumbar_extension	lumbar_bending	lumbar_rotation	arm_flex_r	arm_add_r	arm_rot_r	elbow_flex_r	pro_sup_r	wrist_flex_r	wrist_dev_r	arm_flex_l	arm_add_l	arm_rot_l	elbow_flex_l	pro_sup_l	wrist_flex_l	wrist_dev_l
0.62	2.95764	1.4456	-1.47906	0.782704	-0.0967076	0.996567	-0.29405	-0.0562922	-0.343632	0.356787	0.244089	0	0	0.258194	-0.0473988	-0.278034	0.27841	0.0329479	0	0	-0.37825	-0.00676919	0.111724	0.0690424	-0.227563	0.223765	0.314688	1.15024	0	0	0.103578	-0.246448	0.440671	0.348746	1.23334	0	0
0.63	3.00266	1.44258	-1.52815	0.781641	-0.0846192	0.995679	-0.295481	-0.0708968	-0.336545	0.384625	0.241793	0	0	0.25317	-0.0422919	-0.278679	0.295441	0.0116264	0	0	-0.374872	-0.0154565	0.114322	0.0591671	-0.226527	0.217269	0.316379	1.15462	0	0	0.0953214	-0.246652	0.437013	0.349409	1.24	0	0
0.64	3.05757	1.44067	-1.58438	0.780329	-0.0729486	0.995092	-0.291931	-0.0869305	-0.329184	0.418096	0.235664	0	0	0.253483	-0.0364616	-0.277113	0.318635	-0.00625322	0	0	-0.3716	-0.0252095	0.113944	0.0506237	-0.224713	0.210402	0.318162	1.15932	0	0	0.0891987	-0.246813	0.433325	0.348671	1.24654	0	0
0.65	3.12816	1.44202	-1.65458	0.778945	-0.0615798	0.994709	-0.279663	-0.105601	-0.322404	0.459557	0.225782	0	0	0.260102	-0.0291385	-0.274484	0.346833	-0.0126952	0	0	-0.366002	-0.0369024	0.113196	0.0494658	-0.210114	0.118627	0.299119	1.26999	0	0	0.0893043	-0.238997	0.3899	0.331626	1.31217	0	0
0.66	-3.08851	1.44359	-1.71902	0.777429	-0.0505272	0.9946	-0.262774	-0.123584	-0.315007	0.506606	0.210386	0	0	0.268458	-0.0224185	-0.268093	0.37755	-0.0135498	0	0	-0.359825	-0.0471141	0.111921	0.0402589	-0.207014	0.105478	0.303006	1.2766	0	0	0.0885192	-0.238544	0.393823	0.326054	1.30703	0	0
0.67	-3.10233	1.44453	-1.70309	0.775665	-0.0383091	0.994004	-0.248752	-0.13075	-0.306686	0.552169	0.188776	0	0	0.274239	-0.0247797	-0.255497	0.410621	-0.00514934	0	0	-0.351248	-0.044996	0.115888	0.0259794	-0.208811	0.0994377	0.308018	1.2783	0	0	0.084042	-0.235735	0.397489	0.322004	1.30468	0	0
0.68	-3.05296	1.44979	-1.75107	0.773822	-0.0273431	0.993767	-0.220303	-0.14764	-0.29672	0.608977	0.160145	0	0	0.281624	-0.0182645	-0.249617	0.432499	-0.00411314	0	0	-0.33995	-0.05091	0.115266	0.0155435	-0.209249	0.097581	0.314508	1.26839	0	0	0.0845967	-0.230042	0.383169	0.307602	1.32724	0	0
0.69	-3.00031	1.45511	-1.8023	0.771898	-0.0167473	0.993591	-0.187914	-0.163814	-0.283666	0.668748	0.125359	0	0	0.284983	-0.0105692	-0.248112	0.446101	0.000197625	0	0	-0.329312	-0.0565684	0.116747	0.00723842	-0.210008	0.0919099	0.31728	1.26709	0	0	0.0844169	-0.228533	0.39167	0.302632	1.32218	0	0
0.7	-2.94539	1.46233	-1.85775	0.770128	-0.0065604	0.993218	-0.148761	-0.178699	-0.265937	0.731669	0.0847086	0	0	0.287469	-0.0035471	-0.249986	0.454913	0.00965568	0	0	-0.316924	-0.0616987	0.120393	0.000608629	-0.211454	0.0889124	0.317782	1.26598	0	0	0.0840203	-0.227455	0.401092	0.299351	1.31746	0	0
0.71	-2.87501	1.46949	-1.93002	0.768557	0.00334249	0.992772	-0.106467	-0.192654	-0.243889	0.794903	0.0421979	0	0	0.288311	0.0040134	-0.254003	0.460047	0.0216471	0	0	-0.304336	-0.0677461	0.124319	-0.00409517	-0.2128	0.0881615	0.31684	1.2649	0	0	0.0866057	-0.220613	0.37142	0.284738	1.3622	0	0
0.72	-2.7388	1.47966	-2.07162	0.767394	0.0126538	0.99185	-0.052954	-0.207302	-0.212508	0.862619	0.0024893	0	0	0.294821	0.0132675	-0.262298	0.463587	0.0322029	0	0	-0.285863	-0.0783106	0.130595	-0.00764435	-0.213013	0.089392	0.314783	1.26121	0	0	0.0862038	-0.219865	0.367744	0.281142	1.37418	0	0
0.73	-2.55311	1.48723	-2.26341	0.766512	0.0215023	0.990986	0.00320456	-0.220652	-0.178612	0.929268	-0.0362708	0	0	0.301802	0.0234706	-0.271685	0.465191	0.0403092	0	0	-0.26747	-0.0910647	0.136702	-0.0097654	-0.212334	0.091019	0.313167	1.25743	0	0	0.0850799	-0.221372	0.366052	0.281941	1.38149	0	0
0.74	-2.28658	1.482	-2.5329	0.765696	0.029253	0.991123	0.0580046	-0.243286	-0.147496	0.992941	-0.0759935	0	0	0.304209	0.0451225	-0.283091	0.457302	0.0386489	0	0	-0.255645	-0.115517	0.136533	-0.00620918	-0.207731	0.0911622	0.309563	1.25365	0	0	0.0872472	-0.22669	0.365013	0.285542	1.38589	0	0
0.75	-2.17153	1.47843	-2.65177	0.764911	0.0379293	0.991341	0.101203	-0.252974	-0.120365	1.04717	-0.115878	0	0	0.300988	0.056544	-0.284129	0.454656	0.0450472	0	0	-0.247346	-0.126986	0.139382	-0.0065286	-0.20698	0.0915683	0.310375	1.25251	0	0	0.0863902	-0.229152	0.363882	0.288961	1.38651	0	0
0.76	-2.04505	1.4743	-2.78334	0.764253	0.0464135	0.991432	0.146969	-0.261556	-0.092616	1.09913	-0.153651	0	0	0.300027	0.068124	-0.284071	0.451121	0.0503325	0	0	-0.23558	-0.139362	0.145509	-0.00637947	-0.202942	0.0668616	0.306288	1.28069	0	0	0.0744149	-0.258297	0.507912	0.343125	1.19584	0	0
0.77	-2.01855	1.47186	-2.81119	0.763277	0.0550635	0.992521	0.178413	-0.264091	-0.0741579	1.14137	-0.180639	0	0	0.28913	0.0754368	-0.278656	0.445104	0.0564006	0	0	-0.23319	-0.143532	0.145898	-0.00600218	-0.204099	0.0706727	0.308503	1.27669	0	0	0.0748963	-0.256069	0.495329	0.340678	1.21018	0	0
0.78	-2.0071	1.48071	-2.82486	0.762262	0.064168	0.992901	0.2099	-0.253071	-0.0578043	1.18104	-0.188472	0	0	0.280695	0.0714056	-0.269543	0.441402	0.0681854	0	0	-0.225178	-0.13444	0.150166	-0.00980264	-0.208508	0.0743403	0.313517	1.27271	0	0	0.0728356	-0.250717	0.484668	0.337097	1.22118	0	0
0.79	-2.00242	1.47387	-2.82686	0.761142	0.0720852	0.995295	0.234363	-0.259074	-0.0451263	1.21456	-0.186229	0	0	0.263843	0.08318	-0.265579	0.428249	0.0660613	0	0	-0.230218	-0.141573	0.142946	-0.0073523	-0.211993	0.109472	0.322319	1.22573	0	0	0.0905016	-0.220608	0.317485	0.278191	1.42909	0	0
0.8	-2.0332	1.48508	-2.79462	0.760051	0.0811992	0.996002	0.257832	-0.248463	-0.0429649	1.24357	-0.175226	0	0	0.251069	0.0762499	-0.254799	0.422519	0.0779446	0	0	-0.225528	-0.128066	0.145213	-0.0110673	-0.215577	0.105229	0.326508	1.22737	0	0	0.090773	-0.215221	0.31676	0.272901	1.42385	0	0
0.81	-2.0643	1.48671	-2.75952	0.75897	0.0895962	0.997694	0.276888	-0.247965	-0.0420876	1.26528	-0.164975	0	0	0.233284	0.0782751	-0.249334	0.410708	0.0821249	0	0	-0.227563	-0.125156	0.14245	-0.00947355	-0.215667	0.102656	0.326305	1.22815	0	0	0.0942476	-0.212988	0.318748	0.269449	1.41997	0	0
0.82	-2.07142	1.48766	-2.74748	0.757838	0.0978273	0.999251	0.29667	-0.247612	-0.040067	1.28154	-0.156403	0	0	0.216872	0.0817174	-0.244956	0.39758	0.085753	0	0	-0.228084	-0.123754	0.138756	-0.00709654	-0.214742	0.0983361	0.324589	1.22998	0	0	0.0979272	-0.211549	0.323749	0.266534	1.41163	0	0
0.83	-2.07569	1.48594	-2.73774	0.7564	0.106245	1.00067	0.328471	-0.273122	-0.0632355	1.31013	-0.168265	0	0	0.199073	0.088267	-0.242584	0.38399	0.0891441	0	0	-0.229239	-0.124503	0.13411	-0.00519715	-0.214626	0.0967963	0.323435	1.23084	0	0	0.100702	-0.210354	0.328396	0.265406	1.40626	0	0
0.84	-2.09869	1.49005	-2.70978	0.755711	0.114057	1.00211	0.332988	-0.248517	-0.0418756	1.30015	-0.145568	0	0	0.184187	0.0861233	-0.242736	0.373758	0.0938264	0	0	-0.231196	-0.1203	0.131545	-0.000305392	-0.213537	0.0940986	0.319525	1.23219	0	0	0.104645	-0.211137	0.340948	0.266632	1.39067	0	0
0.85	-2.09573	1.49037	-2.70828	0.754691	0.122119	1.00328	0.351485	-0.249145	-0.0407672	1.30362	-0.140962	0	0	0.167976	0.0901313	-0.239024	0.359676	0.0963537	0	0	-0.231465	-0.120181	0.126605	0.00598951	-0.21062	0.0775559	0.311194	1.2504	0	0	0.111549	-0.205037	0.308178	0.25249	1.43078	0	0
0.86	-2.09658	1.48233	-2.70146	0.75362	0.129592	1.00529	0.365263	-0.257595	-0.0381651	1.30166	-0.136128	0	0	0.147747	0.10097	-0.240122	0.343614	0.0937572	0	0	-0.2395	-0.128604	0.118814	0.013196	-0.208507	0.0770841	0.308219	1.24946	0	0	0.117519	-0.207144	0.314525	0.253365	1.42493	0	0
0.87	-2.10122	1.48534	-2.6917	0.752525	0.137428	1.0061	0.382024	-0.255085	-0.0391281	1.29698	-0.129165	0	0	0.134328	0.100772	-0.237693	0.33358	0.0979976	0	0	-0.240202	-0.125098	0.114128	0.0154859	-0.211174	0.0866185	0.310991	1.2372	0	0	0.122425	-0.204362	0.303574	0.248299	1.44013	0	0
0.88	-2.11547	1.49914	-2.67351	0.751509	0.14558	1.0058	0.401408	-0.241442	-0.043431	1.28942	-0.120449	0	0	0.127894	0.0897484	-0.231103	0.330133	0.109739	0	0	-0.233939	-0.110298	0.113485	0.0151057	-0.2155	0.0859088	0.31377	1.2381	0	0	0.123913	-0.200815	0.302002	0.245996	1.4448	0	0
0.89	-2.14258	1.50378	-2.64086	0.750552	0.153309	1.00652	0.414593	-0.23661	-0.0471763	1.27658	-0.113609	0	0	0.116013	0.0866921	-0.226705	0.323534	0.115547	0	0	-0.235627	-0.104674	0.109116	0.0175942	-0.217405	0.0850743	0.316358	1.23835	0	0	0.128587	-0.199282	0.300807	0.243586	1.44966	0	0
0.9	-2.18421	1.50747	-2.59341	0.749608	0.161012	1.00725	0.425406	-0.232841	-0.0523246	1.26015	-0.104839	0	0	0.102934	0.0842333	-0.221136	0.316272	0.120224	0	0	-0.23872	-0.0994896	0.104463	0.020545	-0.219014	0.0837723	0.318454	1.23874	0	0	0.133768	-0.197744	0.299532	0.240951	1.45394	0	0
0.91	-2.235	1.51066	-2.53625	0.748638	0.168693	1.00791	0.43476	-0.230871	-0.0603869	1.24086	-0.0935018	0	0	0.0898707	0.0817129	-0.215769	0.309923	0.124542	0	0	-0.242454	-0.0943061	0.0994458	0.0234389	-0.220493	0.0821183	0.32057	1.23943	0	0	0.139258	-0.196058	0.298307	0.238071	1.45764	0	0
0.92	-2.28414	1.51404	-2.481	0.747711	0.176294	1.0084	0.443748	-0.229069	-0.0694282	1.21814	-0.0801826	0	0	0.0778375	0.078954	-0.210562	0.304375	0.128787	0	0	-0.245767	-0.0890359	0.0947555	0.0266782	-0.221899	0.0809187	0.322088	1.24031	0	0	0.144688	-0.19433	0.297363	0.235603	1.46044	0	0
0.93	-2.37823	1.51413	-2.37848	0.746751	0.183791	1.00902	0.446531	-0.229612	-0.0823431	1.19173	-0.0682874	0	0	0.0610895	0.0777335	-0.200473	0.296483	0.131817	0	0	-0.253073	-0.0856972	0.0914392	0.0297392	-0.219197	0.0552086	0.321488	1.22742	0	0	0.126645	-0.248692	0.609234	0.34539	1.0379	0	0
0.94	-2.45663	1.51755	-2.29596	0.745978	0.19141	1.00957	0.452408	-0.225284	-0.0915706	1.16138	-0.0587335	0	0	0.047868	0.0737492	-0.197216	0.288543	0.135697	0	0	-0.25744	-0.0780352	0.0857677	0.0347468	-0.224928	0.085054	0.323058	1.23009	0	0	0.153241	-0.196051	0.337965	0.242491	1.40757	0	0
0.95	-2.53007	1.51792	-2.21628	0.74519	0.198971	1.01008	0.454574	-0.225376	-0.105349	1.12821	-0.0453847	0	0	0.0328177	0.0722367	-0.190818	0.280083	0.138766	0	0	-0.26338	-0.0737631	0.0809222	0.0396675	-0.225713	0.0869007	0.321547	1.2281	0	0	0.159688	-0.194394	0.34186	0.239133	1.40344	0	0
